<svg xmlns="http://www.w3.org/2000/svg" xmlns:xlink="http://www.w3.org/1999/xlink" x="0" y="0" width="662" height="477" style="
        width:662px;
        height:477px;
        background: #FFF;
        fill: none;
">
        <svg xmlns="http://www.w3.org/2000/svg"><g><defs><pattern id=".31340742869743" width="10" height="10" patternUnits="userSpaceOnUse"><path d="M 10 0 L 0 0 0 10" fill="none" stroke="lightgray" stroke-width="0.5"/></pattern></defs><rect width="100%" height="100%" fill="url(#.31340742869743)" stroke="lightgray" stroke-width="0.5"/></g></svg>
        <g transform="null"> <svg class="main-svg" xmlns="http://www.w3.org/2000/svg" xmlns:xlink="http://www.w3.org/1999/xlink" width="577" height="465" style="" viewBox="0 0 577 465"><rect x="0" y="0" width="577" height="465" style="fill: rgb(255, 255, 255); fill-opacity: 1;"/><defs id="defs-4bcca6"><g class="clips"><clipPath id="clip4bcca6xyplot" class="plotclip"><rect width="417" height="335"/></clipPath><clipPath class="axesclip" id="clip4bcca6x"><rect x="80" y="0" width="417" height="465"/></clipPath><clipPath class="axesclip" id="clip4bcca6y"><rect x="0" y="50" width="577" height="335"/></clipPath><clipPath class="axesclip" id="clip4bcca6xy"><rect x="80" y="50" width="417" height="335"/></clipPath></g><g class="gradients"/></defs><g class="bglayer"/><g class="layer-below"><g class="imagelayer"/><g class="shapelayer"/></g><g class="cartesianlayer"><g class="subplot xy"><g class="layer-subplot"><g class="shapelayer"/><g class="imagelayer"/></g><g class="gridlayer"><g class="x"><path class="xgrid crisp" transform="translate(173.53,0)" d="M0,50v335" style="stroke: rgb(238, 238, 238); stroke-opacity: 1; stroke-width: 1px;"/><path class="xgrid crisp" transform="translate(267.45,0)" d="M0,50v335" style="stroke: rgb(238, 238, 238); stroke-opacity: 1; stroke-width: 1px;"/><path class="xgrid crisp" transform="translate(361.36,0)" d="M0,50v335" style="stroke: rgb(238, 238, 238); stroke-opacity: 1; stroke-width: 1px;"/><path class="xgrid crisp" transform="translate(455.27,0)" d="M0,50v335" style="stroke: rgb(238, 238, 238); stroke-opacity: 1; stroke-width: 1px;"/></g><g class="y"><path class="ygrid crisp" transform="translate(0,311.63)" d="M80,0h417" style="stroke: rgb(238, 238, 238); stroke-opacity: 1; stroke-width: 1px;"/><path class="ygrid crisp" transform="translate(0,238.91)" d="M80,0h417" style="stroke: rgb(238, 238, 238); stroke-opacity: 1; stroke-width: 1px;"/><path class="ygrid crisp" transform="translate(0,166.18)" d="M80,0h417" style="stroke: rgb(238, 238, 238); stroke-opacity: 1; stroke-width: 1px;"/><path class="ygrid crisp" transform="translate(0,93.46000000000001)" d="M80,0h417" style="stroke: rgb(238, 238, 238); stroke-opacity: 1; stroke-width: 1px;"/></g></g><g class="zerolinelayer"><path class="yzl zl crisp" transform="translate(0,384.36)" d="M80,0h417" style="stroke: rgb(68, 68, 68); stroke-opacity: 1; stroke-width: 1px;"/></g><path class="xlines-below"/><path class="ylines-below"/><g class="overlines-below"/><g class="xaxislayer-below"/><g class="yaxislayer-below"/><g class="overaxes-below"/><g class="plot" transform="translate(80, 50)" clip-path="url('#clip4bcca6xyplot')"><g class="scatterlayer mlayer"><g class="trace scatter trace73542f" style="stroke-miterlimit: 2; opacity: 1;"><g class="fills"/><g class="errorbars"/><g class="lines"/><g class="points"><path class="point" transform="translate(-0.38,334.36)" d="M3,0A3,3 0 1,1 0,-3A3,3 0 0,1 3,0Z" style="opacity: 1; stroke-width: 0px; fill: rgb(224, 62, 73); fill-opacity: 1;"/><path class="point" transform="translate(1.5,334.36)" d="M3,0A3,3 0 1,1 0,-3A3,3 0 0,1 3,0Z" style="opacity: 1; stroke-width: 0px; fill: rgb(224, 62, 73); fill-opacity: 1;"/><path class="point" transform="translate(3.37,305.27)" d="M3,0A3,3 0 1,1 0,-3A3,3 0 0,1 3,0Z" style="opacity: 1; stroke-width: 0px; fill: rgb(224, 62, 73); fill-opacity: 1;"/><path class="point" transform="translate(3.37,76.91)" d="M3,0A3,3 0 1,1 0,-3A3,3 0 0,1 3,0Z" style="opacity: 1; stroke-width: 0px; fill: rgb(224, 62, 73); fill-opacity: 1;"/><path class="point" transform="translate(5.25,276.18)" d="M3,0A3,3 0 1,1 0,-3A3,3 0 0,1 3,0Z" style="opacity: 1; stroke-width: 0px; fill: rgb(224, 62, 73); fill-opacity: 1;"/><path class="point" transform="translate(5.25,106)" d="M3,0A3,3 0 1,1 0,-3A3,3 0 0,1 3,0Z" style="opacity: 1; stroke-width: 0px; fill: rgb(224, 62, 73); fill-opacity: 1;"/><path class="point" transform="translate(7.13,216.54)" d="M3,0A3,3 0 1,1 0,-3A3,3 0 0,1 3,0Z" style="opacity: 1; stroke-width: 0px; fill: rgb(224, 62, 73); fill-opacity: 1;"/><path class="point" transform="translate(7.13,165.63)" d="M3,0A3,3 0 1,1 0,-3A3,3 0 0,1 3,0Z" style="opacity: 1; stroke-width: 0px; fill: rgb(224, 62, 73); fill-opacity: 1;"/><path class="point" transform="translate(20.28,295.08)" d="M3,0A3,3 0 1,1 0,-3A3,3 0 0,1 3,0Z" style="opacity: 1; stroke-width: 0px; fill: rgb(224, 62, 73); fill-opacity: 1;"/><path class="point" transform="translate(20.28,87.09)" d="M3,0A3,3 0 1,1 0,-3A3,3 0 0,1 3,0Z" style="opacity: 1; stroke-width: 0px; fill: rgb(224, 62, 73); fill-opacity: 1;"/><path class="point" transform="translate(25.91,315.45)" d="M3,0A3,3 0 1,1 0,-3A3,3 0 0,1 3,0Z" style="opacity: 1; stroke-width: 0px; fill: rgb(224, 62, 73); fill-opacity: 1;"/><path class="point" transform="translate(25.91,66.73)" d="M3,0A3,3 0 1,1 0,-3A3,3 0 0,1 3,0Z" style="opacity: 1; stroke-width: 0px; fill: rgb(224, 62, 73); fill-opacity: 1;"/><path class="point" transform="translate(31.55,197.63)" d="M3,0A3,3 0 1,1 0,-3A3,3 0 0,1 3,0Z" style="opacity: 1; stroke-width: 0px; fill: rgb(224, 62, 73); fill-opacity: 1;"/><path class="point" transform="translate(31.55,184.54)" d="M3,0A3,3 0 1,1 0,-3A3,3 0 0,1 3,0Z" style="opacity: 1; stroke-width: 0px; fill: rgb(224, 62, 73); fill-opacity: 1;"/><path class="point" transform="translate(33.43,244.18)" d="M3,0A3,3 0 1,1 0,-3A3,3 0 0,1 3,0Z" style="opacity: 1; stroke-width: 0px; fill: rgb(224, 62, 73); fill-opacity: 1;"/><path class="point" transform="translate(33.43,138)" d="M3,0A3,3 0 1,1 0,-3A3,3 0 0,1 3,0Z" style="opacity: 1; stroke-width: 0px; fill: rgb(224, 62, 73); fill-opacity: 1;"/><path class="point" transform="translate(35.31,277.63)" d="M3,0A3,3 0 1,1 0,-3A3,3 0 0,1 3,0Z" style="opacity: 1; stroke-width: 0px; fill: rgb(224, 62, 73); fill-opacity: 1;"/><path class="point" transform="translate(35.31,104.54)" d="M3,0A3,3 0 1,1 0,-3A3,3 0 0,1 3,0Z" style="opacity: 1; stroke-width: 0px; fill: rgb(224, 62, 73); fill-opacity: 1;"/><path class="point" transform="translate(37.18,319.81)" d="M3,0A3,3 0 1,1 0,-3A3,3 0 0,1 3,0Z" style="opacity: 1; stroke-width: 0px; fill: rgb(224, 62, 73); fill-opacity: 1;"/><path class="point" transform="translate(37.18,62.36)" d="M3,0A3,3 0 1,1 0,-3A3,3 0 0,1 3,0Z" style="opacity: 1; stroke-width: 0px; fill: rgb(224, 62, 73); fill-opacity: 1;"/><path class="point" transform="translate(39.06,199.09)" d="M3,0A3,3 0 1,1 0,-3A3,3 0 0,1 3,0Z" style="opacity: 1; stroke-width: 0px; fill: rgb(224, 62, 73); fill-opacity: 1;"/><path class="point" transform="translate(39.06,183.09)" d="M3,0A3,3 0 1,1 0,-3A3,3 0 0,1 3,0Z" style="opacity: 1; stroke-width: 0px; fill: rgb(224, 62, 73); fill-opacity: 1;"/><path class="point" transform="translate(42.82,308.17)" d="M3,0A3,3 0 1,1 0,-3A3,3 0 0,1 3,0Z" style="opacity: 1; stroke-width: 0px; fill: rgb(224, 62, 73); fill-opacity: 1;"/><path class="point" transform="translate(42.82,74)" d="M3,0A3,3 0 1,1 0,-3A3,3 0 0,1 3,0Z" style="opacity: 1; stroke-width: 0px; fill: rgb(224, 62, 73); fill-opacity: 1;"/><path class="point" transform="translate(44.7,228.18)" d="M3,0A3,3 0 1,1 0,-3A3,3 0 0,1 3,0Z" style="opacity: 1; stroke-width: 0px; fill: rgb(224, 62, 73); fill-opacity: 1;"/><path class="point" transform="translate(44.7,154)" d="M3,0A3,3 0 1,1 0,-3A3,3 0 0,1 3,0Z" style="opacity: 1; stroke-width: 0px; fill: rgb(224, 62, 73); fill-opacity: 1;"/><path class="point" transform="translate(46.58,263.09)" d="M3,0A3,3 0 1,1 0,-3A3,3 0 0,1 3,0Z" style="opacity: 1; stroke-width: 0px; fill: rgb(224, 62, 73); fill-opacity: 1;"/><path class="point" transform="translate(46.58,119.09)" d="M3,0A3,3 0 1,1 0,-3A3,3 0 0,1 3,0Z" style="opacity: 1; stroke-width: 0px; fill: rgb(224, 62, 73); fill-opacity: 1;"/><path class="point" transform="translate(55.97,199.09)" d="M3,0A3,3 0 1,1 0,-3A3,3 0 0,1 3,0Z" style="opacity: 1; stroke-width: 0px; fill: rgb(224, 62, 73); fill-opacity: 1;"/><path class="point" transform="translate(55.97,183.09)" d="M3,0A3,3 0 1,1 0,-3A3,3 0 0,1 3,0Z" style="opacity: 1; stroke-width: 0px; fill: rgb(224, 62, 73); fill-opacity: 1;"/><path class="point" transform="translate(59.72,297.99)" d="M3,0A3,3 0 1,1 0,-3A3,3 0 0,1 3,0Z" style="opacity: 1; stroke-width: 0px; fill: rgb(224, 62, 73); fill-opacity: 1;"/><path class="point" transform="translate(59.72,84.18)" d="M3,0A3,3 0 1,1 0,-3A3,3 0 0,1 3,0Z" style="opacity: 1; stroke-width: 0px; fill: rgb(224, 62, 73); fill-opacity: 1;"/><path class="point" transform="translate(74.75,248.54)" d="M3,0A3,3 0 1,1 0,-3A3,3 0 0,1 3,0Z" style="opacity: 1; stroke-width: 0px; fill: rgb(224, 62, 73); fill-opacity: 1;"/><path class="point" transform="translate(74.75,133.63)" d="M3,0A3,3 0 1,1 0,-3A3,3 0 0,1 3,0Z" style="opacity: 1; stroke-width: 0px; fill: rgb(224, 62, 73); fill-opacity: 1;"/><path class="point" transform="translate(76.63,308.17)" d="M3,0A3,3 0 1,1 0,-3A3,3 0 0,1 3,0Z" style="opacity: 1; stroke-width: 0px; fill: rgb(224, 62, 73); fill-opacity: 1;"/><path class="point" transform="translate(76.63,74)" d="M3,0A3,3 0 1,1 0,-3A3,3 0 0,1 3,0Z" style="opacity: 1; stroke-width: 0px; fill: rgb(224, 62, 73); fill-opacity: 1;"/><path class="point" transform="translate(78.51,284.9)" d="M3,0A3,3 0 1,1 0,-3A3,3 0 0,1 3,0Z" style="opacity: 1; stroke-width: 0px; fill: rgb(224, 62, 73); fill-opacity: 1;"/><path class="point" transform="translate(78.51,97.27)" d="M3,0A3,3 0 1,1 0,-3A3,3 0 0,1 3,0Z" style="opacity: 1; stroke-width: 0px; fill: rgb(224, 62, 73); fill-opacity: 1;"/><path class="point" transform="translate(82.26,325.63)" d="M3,0A3,3 0 1,1 0,-3A3,3 0 0,1 3,0Z" style="opacity: 1; stroke-width: 0px; fill: rgb(224, 62, 73); fill-opacity: 1;"/><path class="point" transform="translate(82.26,56.55)" d="M3,0A3,3 0 1,1 0,-3A3,3 0 0,1 3,0Z" style="opacity: 1; stroke-width: 0px; fill: rgb(224, 62, 73); fill-opacity: 1;"/><path class="point" transform="translate(86.02,315.45)" d="M3,0A3,3 0 1,1 0,-3A3,3 0 0,1 3,0Z" style="opacity: 1; stroke-width: 0px; fill: rgb(224, 62, 73); fill-opacity: 1;"/><path class="point" transform="translate(86.02,66.73)" d="M3,0A3,3 0 1,1 0,-3A3,3 0 0,1 3,0Z" style="opacity: 1; stroke-width: 0px; fill: rgb(224, 62, 73); fill-opacity: 1;"/><path class="point" transform="translate(87.9,194.72)" d="M3,0A3,3 0 1,1 0,-3A3,3 0 0,1 3,0Z" style="opacity: 1; stroke-width: 0px; fill: rgb(224, 62, 73); fill-opacity: 1;"/><path class="point" transform="translate(87.9,187.45)" d="M3,0A3,3 0 1,1 0,-3A3,3 0 0,1 3,0Z" style="opacity: 1; stroke-width: 0px; fill: rgb(224, 62, 73); fill-opacity: 1;"/><path class="point" transform="translate(91.65,273.27)" d="M3,0A3,3 0 1,1 0,-3A3,3 0 0,1 3,0Z" style="opacity: 1; stroke-width: 0px; fill: rgb(224, 62, 73); fill-opacity: 1;"/><path class="point" transform="translate(91.65,108.91)" d="M3,0A3,3 0 1,1 0,-3A3,3 0 0,1 3,0Z" style="opacity: 1; stroke-width: 0px; fill: rgb(224, 62, 73); fill-opacity: 1;"/><path class="point" transform="translate(95.41,222.36)" d="M3,0A3,3 0 1,1 0,-3A3,3 0 0,1 3,0Z" style="opacity: 1; stroke-width: 0px; fill: rgb(224, 62, 73); fill-opacity: 1;"/><path class="point" transform="translate(95.41,159.82)" d="M3,0A3,3 0 1,1 0,-3A3,3 0 0,1 3,0Z" style="opacity: 1; stroke-width: 0px; fill: rgb(224, 62, 73); fill-opacity: 1;"/><path class="point" transform="translate(101.05,202)" d="M3,0A3,3 0 1,1 0,-3A3,3 0 0,1 3,0Z" style="opacity: 1; stroke-width: 0px; fill: rgb(224, 62, 73); fill-opacity: 1;"/><path class="point" transform="translate(101.05,180.18)" d="M3,0A3,3 0 1,1 0,-3A3,3 0 0,1 3,0Z" style="opacity: 1; stroke-width: 0px; fill: rgb(224, 62, 73); fill-opacity: 1;"/><path class="point" transform="translate(104.8,234)" d="M3,0A3,3 0 1,1 0,-3A3,3 0 0,1 3,0Z" style="opacity: 1; stroke-width: 0px; fill: rgb(224, 62, 73); fill-opacity: 1;"/><path class="point" transform="translate(104.8,148.18)" d="M3,0A3,3 0 1,1 0,-3A3,3 0 0,1 3,0Z" style="opacity: 1; stroke-width: 0px; fill: rgb(224, 62, 73); fill-opacity: 1;"/><path class="point" transform="translate(108.56,276.18)" d="M3,0A3,3 0 1,1 0,-3A3,3 0 0,1 3,0Z" style="opacity: 1; stroke-width: 0px; fill: rgb(224, 62, 73); fill-opacity: 1;"/><path class="point" transform="translate(108.56,106)" d="M3,0A3,3 0 1,1 0,-3A3,3 0 0,1 3,0Z" style="opacity: 1; stroke-width: 0px; fill: rgb(224, 62, 73); fill-opacity: 1;"/><path class="point" transform="translate(112.32,312.54)" d="M3,0A3,3 0 1,1 0,-3A3,3 0 0,1 3,0Z" style="opacity: 1; stroke-width: 0px; fill: rgb(224, 62, 73); fill-opacity: 1;"/><path class="point" transform="translate(112.32,69.64)" d="M3,0A3,3 0 1,1 0,-3A3,3 0 0,1 3,0Z" style="opacity: 1; stroke-width: 0px; fill: rgb(224, 62, 73); fill-opacity: 1;"/><path class="point" transform="translate(114.19,289.27)" d="M3,0A3,3 0 1,1 0,-3A3,3 0 0,1 3,0Z" style="opacity: 1; stroke-width: 0px; fill: rgb(224, 62, 73); fill-opacity: 1;"/><path class="point" transform="translate(114.19,92.91)" d="M3,0A3,3 0 1,1 0,-3A3,3 0 0,1 3,0Z" style="opacity: 1; stroke-width: 0px; fill: rgb(224, 62, 73); fill-opacity: 1;"/><path class="point" transform="translate(116.07,235.45)" d="M3,0A3,3 0 1,1 0,-3A3,3 0 0,1 3,0Z" style="opacity: 1; stroke-width: 0px; fill: rgb(224, 62, 73); fill-opacity: 1;"/><path class="point" transform="translate(116.07,146.73)" d="M3,0A3,3 0 1,1 0,-3A3,3 0 0,1 3,0Z" style="opacity: 1; stroke-width: 0px; fill: rgb(224, 62, 73); fill-opacity: 1;"/><path class="point" transform="translate(117.95,273.27)" d="M3,0A3,3 0 1,1 0,-3A3,3 0 0,1 3,0Z" style="opacity: 1; stroke-width: 0px; fill: rgb(224, 62, 73); fill-opacity: 1;"/><path class="point" transform="translate(117.95,108.91)" d="M3,0A3,3 0 1,1 0,-3A3,3 0 0,1 3,0Z" style="opacity: 1; stroke-width: 0px; fill: rgb(224, 62, 73); fill-opacity: 1;"/><path class="point" transform="translate(119.83,254.36)" d="M3,0A3,3 0 1,1 0,-3A3,3 0 0,1 3,0Z" style="opacity: 1; stroke-width: 0px; fill: rgb(224, 62, 73); fill-opacity: 1;"/><path class="point" transform="translate(119.83,127.82)" d="M3,0A3,3 0 1,1 0,-3A3,3 0 0,1 3,0Z" style="opacity: 1; stroke-width: 0px; fill: rgb(224, 62, 73); fill-opacity: 1;"/><path class="point" transform="translate(123.58,202)" d="M3,0A3,3 0 1,1 0,-3A3,3 0 0,1 3,0Z" style="opacity: 1; stroke-width: 0px; fill: rgb(224, 62, 73); fill-opacity: 1;"/><path class="point" transform="translate(123.58,180.18)" d="M3,0A3,3 0 1,1 0,-3A3,3 0 0,1 3,0Z" style="opacity: 1; stroke-width: 0px; fill: rgb(224, 62, 73); fill-opacity: 1;"/><path class="point" transform="translate(129.22,204.91)" d="M3,0A3,3 0 1,1 0,-3A3,3 0 0,1 3,0Z" style="opacity: 1; stroke-width: 0px; fill: rgb(224, 62, 73); fill-opacity: 1;"/><path class="point" transform="translate(129.22,177.27)" d="M3,0A3,3 0 1,1 0,-3A3,3 0 0,1 3,0Z" style="opacity: 1; stroke-width: 0px; fill: rgb(224, 62, 73); fill-opacity: 1;"/><path class="point" transform="translate(131.1,193.27)" d="M3,0A3,3 0 1,1 0,-3A3,3 0 0,1 3,0Z" style="opacity: 1; stroke-width: 0px; fill: rgb(224, 62, 73); fill-opacity: 1;"/><path class="point" transform="translate(131.1,188.91)" d="M3,0A3,3 0 1,1 0,-3A3,3 0 0,1 3,0Z" style="opacity: 1; stroke-width: 0px; fill: rgb(224, 62, 73); fill-opacity: 1;"/><path class="point" transform="translate(132.98,239.81)" d="M3,0A3,3 0 1,1 0,-3A3,3 0 0,1 3,0Z" style="opacity: 1; stroke-width: 0px; fill: rgb(224, 62, 73); fill-opacity: 1;"/><path class="point" transform="translate(132.98,142.36)" d="M3,0A3,3 0 1,1 0,-3A3,3 0 0,1 3,0Z" style="opacity: 1; stroke-width: 0px; fill: rgb(224, 62, 73); fill-opacity: 1;"/><path class="point" transform="translate(140.49,203.45)" d="M3,0A3,3 0 1,1 0,-3A3,3 0 0,1 3,0Z" style="opacity: 1; stroke-width: 0px; fill: rgb(224, 62, 73); fill-opacity: 1;"/><path class="point" transform="translate(140.49,178.72)" d="M3,0A3,3 0 1,1 0,-3A3,3 0 0,1 3,0Z" style="opacity: 1; stroke-width: 0px; fill: rgb(224, 62, 73); fill-opacity: 1;"/><path class="point" transform="translate(142.37,252.9)" d="M3,0A3,3 0 1,1 0,-3A3,3 0 0,1 3,0Z" style="opacity: 1; stroke-width: 0px; fill: rgb(224, 62, 73); fill-opacity: 1;"/><path class="point" transform="translate(142.37,129.27)" d="M3,0A3,3 0 1,1 0,-3A3,3 0 0,1 3,0Z" style="opacity: 1; stroke-width: 0px; fill: rgb(224, 62, 73); fill-opacity: 1;"/><path class="point" transform="translate(144.25,202)" d="M3,0A3,3 0 1,1 0,-3A3,3 0 0,1 3,0Z" style="opacity: 1; stroke-width: 0px; fill: rgb(224, 62, 73); fill-opacity: 1;"/><path class="point" transform="translate(144.25,180.18)" d="M3,0A3,3 0 1,1 0,-3A3,3 0 0,1 3,0Z" style="opacity: 1; stroke-width: 0px; fill: rgb(224, 62, 73); fill-opacity: 1;"/><path class="point" transform="translate(149.88,281.99)" d="M3,0A3,3 0 1,1 0,-3A3,3 0 0,1 3,0Z" style="opacity: 1; stroke-width: 0px; fill: rgb(224, 62, 73); fill-opacity: 1;"/><path class="point" transform="translate(149.88,100.18)" d="M3,0A3,3 0 1,1 0,-3A3,3 0 0,1 3,0Z" style="opacity: 1; stroke-width: 0px; fill: rgb(224, 62, 73); fill-opacity: 1;"/><path class="point" transform="translate(151.76,257.27)" d="M3,0A3,3 0 1,1 0,-3A3,3 0 0,1 3,0Z" style="opacity: 1; stroke-width: 0px; fill: rgb(224, 62, 73); fill-opacity: 1;"/><path class="point" transform="translate(151.76,124.91)" d="M3,0A3,3 0 1,1 0,-3A3,3 0 0,1 3,0Z" style="opacity: 1; stroke-width: 0px; fill: rgb(224, 62, 73); fill-opacity: 1;"/><path class="point" transform="translate(155.52,228.18)" d="M3,0A3,3 0 1,1 0,-3A3,3 0 0,1 3,0Z" style="opacity: 1; stroke-width: 0px; fill: rgb(224, 62, 73); fill-opacity: 1;"/><path class="point" transform="translate(155.52,154)" d="M3,0A3,3 0 1,1 0,-3A3,3 0 0,1 3,0Z" style="opacity: 1; stroke-width: 0px; fill: rgb(224, 62, 73); fill-opacity: 1;"/><path class="point" transform="translate(159.27,273.27)" d="M3,0A3,3 0 1,1 0,-3A3,3 0 0,1 3,0Z" style="opacity: 1; stroke-width: 0px; fill: rgb(224, 62, 73); fill-opacity: 1;"/><path class="point" transform="translate(159.27,108.91)" d="M3,0A3,3 0 1,1 0,-3A3,3 0 0,1 3,0Z" style="opacity: 1; stroke-width: 0px; fill: rgb(224, 62, 73); fill-opacity: 1;"/><path class="point" transform="translate(161.15,247.09)" d="M3,0A3,3 0 1,1 0,-3A3,3 0 0,1 3,0Z" style="opacity: 1; stroke-width: 0px; fill: rgb(224, 62, 73); fill-opacity: 1;"/><path class="point" transform="translate(161.15,135.09)" d="M3,0A3,3 0 1,1 0,-3A3,3 0 0,1 3,0Z" style="opacity: 1; stroke-width: 0px; fill: rgb(224, 62, 73); fill-opacity: 1;"/><path class="point" transform="translate(163.03,265.99)" d="M3,0A3,3 0 1,1 0,-3A3,3 0 0,1 3,0Z" style="opacity: 1; stroke-width: 0px; fill: rgb(224, 62, 73); fill-opacity: 1;"/><path class="point" transform="translate(163.03,116.18)" d="M3,0A3,3 0 1,1 0,-3A3,3 0 0,1 3,0Z" style="opacity: 1; stroke-width: 0px; fill: rgb(224, 62, 73); fill-opacity: 1;"/><path class="point" transform="translate(164.91,255.81)" d="M3,0A3,3 0 1,1 0,-3A3,3 0 0,1 3,0Z" style="opacity: 1; stroke-width: 0px; fill: rgb(224, 62, 73); fill-opacity: 1;"/><path class="point" transform="translate(164.91,126.36)" d="M3,0A3,3 0 1,1 0,-3A3,3 0 0,1 3,0Z" style="opacity: 1; stroke-width: 0px; fill: rgb(224, 62, 73); fill-opacity: 1;"/><path class="point" transform="translate(168.66,228.18)" d="M3,0A3,3 0 1,1 0,-3A3,3 0 0,1 3,0Z" style="opacity: 1; stroke-width: 0px; fill: rgb(224, 62, 73); fill-opacity: 1;"/><path class="point" transform="translate(168.66,154)" d="M3,0A3,3 0 1,1 0,-3A3,3 0 0,1 3,0Z" style="opacity: 1; stroke-width: 0px; fill: rgb(224, 62, 73); fill-opacity: 1;"/><path class="point" transform="translate(176.18,300.9)" d="M3,0A3,3 0 1,1 0,-3A3,3 0 0,1 3,0Z" style="opacity: 1; stroke-width: 0px; fill: rgb(224, 62, 73); fill-opacity: 1;"/><path class="point" transform="translate(176.18,81.27)" d="M3,0A3,3 0 1,1 0,-3A3,3 0 0,1 3,0Z" style="opacity: 1; stroke-width: 0px; fill: rgb(224, 62, 73); fill-opacity: 1;"/><path class="point" transform="translate(178.06,210.72)" d="M3,0A3,3 0 1,1 0,-3A3,3 0 0,1 3,0Z" style="opacity: 1; stroke-width: 0px; fill: rgb(224, 62, 73); fill-opacity: 1;"/><path class="point" transform="translate(178.06,171.45)" d="M3,0A3,3 0 1,1 0,-3A3,3 0 0,1 3,0Z" style="opacity: 1; stroke-width: 0px; fill: rgb(224, 62, 73); fill-opacity: 1;"/><path class="point" transform="translate(183.69,327.08)" d="M3,0A3,3 0 1,1 0,-3A3,3 0 0,1 3,0Z" style="opacity: 1; stroke-width: 0px; fill: rgb(224, 62, 73); fill-opacity: 1;"/><path class="point" transform="translate(183.69,55.09)" d="M3,0A3,3 0 1,1 0,-3A3,3 0 0,1 3,0Z" style="opacity: 1; stroke-width: 0px; fill: rgb(224, 62, 73); fill-opacity: 1;"/><path class="point" transform="translate(185.57,232.54)" d="M3,0A3,3 0 1,1 0,-3A3,3 0 0,1 3,0Z" style="opacity: 1; stroke-width: 0px; fill: rgb(224, 62, 73); fill-opacity: 1;"/><path class="point" transform="translate(185.57,149.63)" d="M3,0A3,3 0 1,1 0,-3A3,3 0 0,1 3,0Z" style="opacity: 1; stroke-width: 0px; fill: rgb(224, 62, 73); fill-opacity: 1;"/><path class="point" transform="translate(191.2,322.72)" d="M3,0A3,3 0 1,1 0,-3A3,3 0 0,1 3,0Z" style="opacity: 1; stroke-width: 0px; fill: rgb(224, 62, 73); fill-opacity: 1;"/><path class="point" transform="translate(191.2,59.46)" d="M3,0A3,3 0 1,1 0,-3A3,3 0 0,1 3,0Z" style="opacity: 1; stroke-width: 0px; fill: rgb(224, 62, 73); fill-opacity: 1;"/><path class="point" transform="translate(193.08,229.63)" d="M3,0A3,3 0 1,1 0,-3A3,3 0 0,1 3,0Z" style="opacity: 1; stroke-width: 0px; fill: rgb(224, 62, 73); fill-opacity: 1;"/><path class="point" transform="translate(193.08,152.54)" d="M3,0A3,3 0 1,1 0,-3A3,3 0 0,1 3,0Z" style="opacity: 1; stroke-width: 0px; fill: rgb(224, 62, 73); fill-opacity: 1;"/><path class="point" transform="translate(200.59,280.54)" d="M3,0A3,3 0 1,1 0,-3A3,3 0 0,1 3,0Z" style="opacity: 1; stroke-width: 0px; fill: rgb(224, 62, 73); fill-opacity: 1;"/><path class="point" transform="translate(200.59,101.64)" d="M3,0A3,3 0 1,1 0,-3A3,3 0 0,1 3,0Z" style="opacity: 1; stroke-width: 0px; fill: rgb(224, 62, 73); fill-opacity: 1;"/><path class="point" transform="translate(204.35,287.81)" d="M3,0A3,3 0 1,1 0,-3A3,3 0 0,1 3,0Z" style="opacity: 1; stroke-width: 0px; fill: rgb(224, 62, 73); fill-opacity: 1;"/><path class="point" transform="translate(204.35,94.36)" d="M3,0A3,3 0 1,1 0,-3A3,3 0 0,1 3,0Z" style="opacity: 1; stroke-width: 0px; fill: rgb(224, 62, 73); fill-opacity: 1;"/><path class="point" transform="translate(206.23,236.9)" d="M3,0A3,3 0 1,1 0,-3A3,3 0 0,1 3,0Z" style="opacity: 1; stroke-width: 0px; fill: rgb(224, 62, 73); fill-opacity: 1;"/><path class="point" transform="translate(206.23,145.27)" d="M3,0A3,3 0 1,1 0,-3A3,3 0 0,1 3,0Z" style="opacity: 1; stroke-width: 0px; fill: rgb(224, 62, 73); fill-opacity: 1;"/><path class="point" transform="translate(208.11,258.72)" d="M3,0A3,3 0 1,1 0,-3A3,3 0 0,1 3,0Z" style="opacity: 1; stroke-width: 0px; fill: rgb(224, 62, 73); fill-opacity: 1;"/><path class="point" transform="translate(208.11,123.45)" d="M3,0A3,3 0 1,1 0,-3A3,3 0 0,1 3,0Z" style="opacity: 1; stroke-width: 0px; fill: rgb(224, 62, 73); fill-opacity: 1;"/><path class="point" transform="translate(209.99,329.99)" d="M3,0A3,3 0 1,1 0,-3A3,3 0 0,1 3,0Z" style="opacity: 1; stroke-width: 0px; fill: rgb(224, 62, 73); fill-opacity: 1;"/><path class="point" transform="translate(209.99,52.18)" d="M3,0A3,3 0 1,1 0,-3A3,3 0 0,1 3,0Z" style="opacity: 1; stroke-width: 0px; fill: rgb(224, 62, 73); fill-opacity: 1;"/><path class="point" transform="translate(213.74,280.54)" d="M3,0A3,3 0 1,1 0,-3A3,3 0 0,1 3,0Z" style="opacity: 1; stroke-width: 0px; fill: rgb(224, 62, 73); fill-opacity: 1;"/><path class="point" transform="translate(213.74,101.64)" d="M3,0A3,3 0 1,1 0,-3A3,3 0 0,1 3,0Z" style="opacity: 1; stroke-width: 0px; fill: rgb(224, 62, 73); fill-opacity: 1;"/><path class="point" transform="translate(217.5,267.45)" d="M3,0A3,3 0 1,1 0,-3A3,3 0 0,1 3,0Z" style="opacity: 1; stroke-width: 0px; fill: rgb(224, 62, 73); fill-opacity: 1;"/><path class="point" transform="translate(217.5,114.73)" d="M3,0A3,3 0 1,1 0,-3A3,3 0 0,1 3,0Z" style="opacity: 1; stroke-width: 0px; fill: rgb(224, 62, 73); fill-opacity: 1;"/><path class="point" transform="translate(219.38,207.81)" d="M3,0A3,3 0 1,1 0,-3A3,3 0 0,1 3,0Z" style="opacity: 1; stroke-width: 0px; fill: rgb(224, 62, 73); fill-opacity: 1;"/><path class="point" transform="translate(219.38,174.36)" d="M3,0A3,3 0 1,1 0,-3A3,3 0 0,1 3,0Z" style="opacity: 1; stroke-width: 0px; fill: rgb(224, 62, 73); fill-opacity: 1;"/><path class="point" transform="translate(225.01,200.54)" d="M3,0A3,3 0 1,1 0,-3A3,3 0 0,1 3,0Z" style="opacity: 1; stroke-width: 0px; fill: rgb(224, 62, 73); fill-opacity: 1;"/><path class="point" transform="translate(225.01,181.63)" d="M3,0A3,3 0 1,1 0,-3A3,3 0 0,1 3,0Z" style="opacity: 1; stroke-width: 0px; fill: rgb(224, 62, 73); fill-opacity: 1;"/><path class="point" transform="translate(226.89,328.54)" d="M3,0A3,3 0 1,1 0,-3A3,3 0 0,1 3,0Z" style="opacity: 1; stroke-width: 0px; fill: rgb(224, 62, 73); fill-opacity: 1;"/><path class="point" transform="translate(226.89,53.64)" d="M3,0A3,3 0 1,1 0,-3A3,3 0 0,1 3,0Z" style="opacity: 1; stroke-width: 0px; fill: rgb(224, 62, 73); fill-opacity: 1;"/><path class="point" transform="translate(228.77,220.9)" d="M3,0A3,3 0 1,1 0,-3A3,3 0 0,1 3,0Z" style="opacity: 1; stroke-width: 0px; fill: rgb(224, 62, 73); fill-opacity: 1;"/><path class="point" transform="translate(228.77,161.27)" d="M3,0A3,3 0 1,1 0,-3A3,3 0 0,1 3,0Z" style="opacity: 1; stroke-width: 0px; fill: rgb(224, 62, 73); fill-opacity: 1;"/><path class="point" transform="translate(236.28,225.27)" d="M3,0A3,3 0 1,1 0,-3A3,3 0 0,1 3,0Z" style="opacity: 1; stroke-width: 0px; fill: rgb(224, 62, 73); fill-opacity: 1;"/><path class="point" transform="translate(236.28,156.91)" d="M3,0A3,3 0 1,1 0,-3A3,3 0 0,1 3,0Z" style="opacity: 1; stroke-width: 0px; fill: rgb(224, 62, 73); fill-opacity: 1;"/><path class="point" transform="translate(238.16,303.81)" d="M3,0A3,3 0 1,1 0,-3A3,3 0 0,1 3,0Z" style="opacity: 1; stroke-width: 0px; fill: rgb(224, 62, 73); fill-opacity: 1;"/><path class="point" transform="translate(238.16,78.36)" d="M3,0A3,3 0 1,1 0,-3A3,3 0 0,1 3,0Z" style="opacity: 1; stroke-width: 0px; fill: rgb(224, 62, 73); fill-opacity: 1;"/><path class="point" transform="translate(240.04,241.27)" d="M3,0A3,3 0 1,1 0,-3A3,3 0 0,1 3,0Z" style="opacity: 1; stroke-width: 0px; fill: rgb(224, 62, 73); fill-opacity: 1;"/><path class="point" transform="translate(240.04,140.91)" d="M3,0A3,3 0 1,1 0,-3A3,3 0 0,1 3,0Z" style="opacity: 1; stroke-width: 0px; fill: rgb(224, 62, 73); fill-opacity: 1;"/><path class="point" transform="translate(245.67,200.54)" d="M3,0A3,3 0 1,1 0,-3A3,3 0 0,1 3,0Z" style="opacity: 1; stroke-width: 0px; fill: rgb(224, 62, 73); fill-opacity: 1;"/><path class="point" transform="translate(245.67,181.63)" d="M3,0A3,3 0 1,1 0,-3A3,3 0 0,1 3,0Z" style="opacity: 1; stroke-width: 0px; fill: rgb(224, 62, 73); fill-opacity: 1;"/><path class="point" transform="translate(249.43,308.17)" d="M3,0A3,3 0 1,1 0,-3A3,3 0 0,1 3,0Z" style="opacity: 1; stroke-width: 0px; fill: rgb(224, 62, 73); fill-opacity: 1;"/><path class="point" transform="translate(249.43,74)" d="M3,0A3,3 0 1,1 0,-3A3,3 0 0,1 3,0Z" style="opacity: 1; stroke-width: 0px; fill: rgb(224, 62, 73); fill-opacity: 1;"/><path class="point" transform="translate(251.31,329.99)" d="M3,0A3,3 0 1,1 0,-3A3,3 0 0,1 3,0Z" style="opacity: 1; stroke-width: 0px; fill: rgb(224, 62, 73); fill-opacity: 1;"/><path class="point" transform="translate(251.31,52.18)" d="M3,0A3,3 0 1,1 0,-3A3,3 0 0,1 3,0Z" style="opacity: 1; stroke-width: 0px; fill: rgb(224, 62, 73); fill-opacity: 1;"/><path class="point" transform="translate(253.19,286.36)" d="M3,0A3,3 0 1,1 0,-3A3,3 0 0,1 3,0Z" style="opacity: 1; stroke-width: 0px; fill: rgb(224, 62, 73); fill-opacity: 1;"/><path class="point" transform="translate(253.19,95.82)" d="M3,0A3,3 0 1,1 0,-3A3,3 0 0,1 3,0Z" style="opacity: 1; stroke-width: 0px; fill: rgb(224, 62, 73); fill-opacity: 1;"/><path class="point" transform="translate(255.06,276.18)" d="M3,0A3,3 0 1,1 0,-3A3,3 0 0,1 3,0Z" style="opacity: 1; stroke-width: 0px; fill: rgb(224, 62, 73); fill-opacity: 1;"/><path class="point" transform="translate(255.06,106)" d="M3,0A3,3 0 1,1 0,-3A3,3 0 0,1 3,0Z" style="opacity: 1; stroke-width: 0px; fill: rgb(224, 62, 73); fill-opacity: 1;"/><path class="point" transform="translate(256.94,315.45)" d="M3,0A3,3 0 1,1 0,-3A3,3 0 0,1 3,0Z" style="opacity: 1; stroke-width: 0px; fill: rgb(224, 62, 73); fill-opacity: 1;"/><path class="point" transform="translate(256.94,66.73)" d="M3,0A3,3 0 1,1 0,-3A3,3 0 0,1 3,0Z" style="opacity: 1; stroke-width: 0px; fill: rgb(224, 62, 73); fill-opacity: 1;"/><path class="point" transform="translate(260.7,289.27)" d="M3,0A3,3 0 1,1 0,-3A3,3 0 0,1 3,0Z" style="opacity: 1; stroke-width: 0px; fill: rgb(224, 62, 73); fill-opacity: 1;"/><path class="point" transform="translate(260.7,92.91)" d="M3,0A3,3 0 1,1 0,-3A3,3 0 0,1 3,0Z" style="opacity: 1; stroke-width: 0px; fill: rgb(224, 62, 73); fill-opacity: 1;"/><path class="point" transform="translate(264.46,306.72)" d="M3,0A3,3 0 1,1 0,-3A3,3 0 0,1 3,0Z" style="opacity: 1; stroke-width: 0px; fill: rgb(224, 62, 73); fill-opacity: 1;"/><path class="point" transform="translate(264.46,75.45)" d="M3,0A3,3 0 1,1 0,-3A3,3 0 0,1 3,0Z" style="opacity: 1; stroke-width: 0px; fill: rgb(224, 62, 73); fill-opacity: 1;"/><path class="point" transform="translate(268.21,200.54)" d="M3,0A3,3 0 1,1 0,-3A3,3 0 0,1 3,0Z" style="opacity: 1; stroke-width: 0px; fill: rgb(224, 62, 73); fill-opacity: 1;"/><path class="point" transform="translate(268.21,181.63)" d="M3,0A3,3 0 1,1 0,-3A3,3 0 0,1 3,0Z" style="opacity: 1; stroke-width: 0px; fill: rgb(224, 62, 73); fill-opacity: 1;"/><path class="point" transform="translate(273.85,199.09)" d="M3,0A3,3 0 1,1 0,-3A3,3 0 0,1 3,0Z" style="opacity: 1; stroke-width: 0px; fill: rgb(224, 62, 73); fill-opacity: 1;"/><path class="point" transform="translate(273.85,183.09)" d="M3,0A3,3 0 1,1 0,-3A3,3 0 0,1 3,0Z" style="opacity: 1; stroke-width: 0px; fill: rgb(224, 62, 73); fill-opacity: 1;"/><path class="point" transform="translate(277.6,329.99)" d="M3,0A3,3 0 1,1 0,-3A3,3 0 0,1 3,0Z" style="opacity: 1; stroke-width: 0px; fill: rgb(224, 62, 73); fill-opacity: 1;"/><path class="point" transform="translate(277.6,52.18)" d="M3,0A3,3 0 1,1 0,-3A3,3 0 0,1 3,0Z" style="opacity: 1; stroke-width: 0px; fill: rgb(224, 62, 73); fill-opacity: 1;"/><path class="point" transform="translate(281.36,283.45)" d="M3,0A3,3 0 1,1 0,-3A3,3 0 0,1 3,0Z" style="opacity: 1; stroke-width: 0px; fill: rgb(224, 62, 73); fill-opacity: 1;"/><path class="point" transform="translate(281.36,98.73)" d="M3,0A3,3 0 1,1 0,-3A3,3 0 0,1 3,0Z" style="opacity: 1; stroke-width: 0px; fill: rgb(224, 62, 73); fill-opacity: 1;"/><path class="point" transform="translate(283.24,312.54)" d="M3,0A3,3 0 1,1 0,-3A3,3 0 0,1 3,0Z" style="opacity: 1; stroke-width: 0px; fill: rgb(224, 62, 73); fill-opacity: 1;"/><path class="point" transform="translate(283.24,69.64)" d="M3,0A3,3 0 1,1 0,-3A3,3 0 0,1 3,0Z" style="opacity: 1; stroke-width: 0px; fill: rgb(224, 62, 73); fill-opacity: 1;"/><path class="point" transform="translate(287,212.18)" d="M3,0A3,3 0 1,1 0,-3A3,3 0 0,1 3,0Z" style="opacity: 1; stroke-width: 0px; fill: rgb(224, 62, 73); fill-opacity: 1;"/><path class="point" transform="translate(287,170)" d="M3,0A3,3 0 1,1 0,-3A3,3 0 0,1 3,0Z" style="opacity: 1; stroke-width: 0px; fill: rgb(224, 62, 73); fill-opacity: 1;"/><path class="point" transform="translate(290.75,215.09)" d="M3,0A3,3 0 1,1 0,-3A3,3 0 0,1 3,0Z" style="opacity: 1; stroke-width: 0px; fill: rgb(224, 62, 73); fill-opacity: 1;"/><path class="point" transform="translate(290.75,167.09)" d="M3,0A3,3 0 1,1 0,-3A3,3 0 0,1 3,0Z" style="opacity: 1; stroke-width: 0px; fill: rgb(224, 62, 73); fill-opacity: 1;"/><path class="point" transform="translate(292.63,254.36)" d="M3,0A3,3 0 1,1 0,-3A3,3 0 0,1 3,0Z" style="opacity: 1; stroke-width: 0px; fill: rgb(224, 62, 73); fill-opacity: 1;"/><path class="point" transform="translate(292.63,127.82)" d="M3,0A3,3 0 1,1 0,-3A3,3 0 0,1 3,0Z" style="opacity: 1; stroke-width: 0px; fill: rgb(224, 62, 73); fill-opacity: 1;"/><path class="point" transform="translate(294.51,279.08)" d="M3,0A3,3 0 1,1 0,-3A3,3 0 0,1 3,0Z" style="opacity: 1; stroke-width: 0px; fill: rgb(224, 62, 73); fill-opacity: 1;"/><path class="point" transform="translate(294.51,103.09)" d="M3,0A3,3 0 1,1 0,-3A3,3 0 0,1 3,0Z" style="opacity: 1; stroke-width: 0px; fill: rgb(224, 62, 73); fill-opacity: 1;"/><path class="point" transform="translate(309.53,270.36)" d="M3,0A3,3 0 1,1 0,-3A3,3 0 0,1 3,0Z" style="opacity: 1; stroke-width: 0px; fill: rgb(224, 62, 73); fill-opacity: 1;"/><path class="point" transform="translate(309.53,111.82)" d="M3,0A3,3 0 1,1 0,-3A3,3 0 0,1 3,0Z" style="opacity: 1; stroke-width: 0px; fill: rgb(224, 62, 73); fill-opacity: 1;"/><path class="point" transform="translate(313.29,222.36)" d="M3,0A3,3 0 1,1 0,-3A3,3 0 0,1 3,0Z" style="opacity: 1; stroke-width: 0px; fill: rgb(224, 62, 73); fill-opacity: 1;"/><path class="point" transform="translate(313.29,159.82)" d="M3,0A3,3 0 1,1 0,-3A3,3 0 0,1 3,0Z" style="opacity: 1; stroke-width: 0px; fill: rgb(224, 62, 73); fill-opacity: 1;"/><path class="point" transform="translate(322.68,196.18)" d="M3,0A3,3 0 1,1 0,-3A3,3 0 0,1 3,0Z" style="opacity: 1; stroke-width: 0px; fill: rgb(224, 62, 73); fill-opacity: 1;"/><path class="point" transform="translate(322.68,186)" d="M3,0A3,3 0 1,1 0,-3A3,3 0 0,1 3,0Z" style="opacity: 1; stroke-width: 0px; fill: rgb(224, 62, 73); fill-opacity: 1;"/><path class="point" transform="translate(324.56,280.54)" d="M3,0A3,3 0 1,1 0,-3A3,3 0 0,1 3,0Z" style="opacity: 1; stroke-width: 0px; fill: rgb(224, 62, 73); fill-opacity: 1;"/><path class="point" transform="translate(324.56,101.64)" d="M3,0A3,3 0 1,1 0,-3A3,3 0 0,1 3,0Z" style="opacity: 1; stroke-width: 0px; fill: rgb(224, 62, 73); fill-opacity: 1;"/><path class="point" transform="translate(326.44,254.36)" d="M3,0A3,3 0 1,1 0,-3A3,3 0 0,1 3,0Z" style="opacity: 1; stroke-width: 0px; fill: rgb(224, 62, 73); fill-opacity: 1;"/><path class="point" transform="translate(326.44,127.82)" d="M3,0A3,3 0 1,1 0,-3A3,3 0 0,1 3,0Z" style="opacity: 1; stroke-width: 0px; fill: rgb(224, 62, 73); fill-opacity: 1;"/><path class="point" transform="translate(330.2,222.36)" d="M3,0A3,3 0 1,1 0,-3A3,3 0 0,1 3,0Z" style="opacity: 1; stroke-width: 0px; fill: rgb(224, 62, 73); fill-opacity: 1;"/><path class="point" transform="translate(330.2,159.82)" d="M3,0A3,3 0 1,1 0,-3A3,3 0 0,1 3,0Z" style="opacity: 1; stroke-width: 0px; fill: rgb(224, 62, 73); fill-opacity: 1;"/><path class="point" transform="translate(332.07,251.45)" d="M3,0A3,3 0 1,1 0,-3A3,3 0 0,1 3,0Z" style="opacity: 1; stroke-width: 0px; fill: rgb(224, 62, 73); fill-opacity: 1;"/><path class="point" transform="translate(332.07,130.73)" d="M3,0A3,3 0 1,1 0,-3A3,3 0 0,1 3,0Z" style="opacity: 1; stroke-width: 0px; fill: rgb(224, 62, 73); fill-opacity: 1;"/><path class="point" transform="translate(333.95,268.9)" d="M3,0A3,3 0 1,1 0,-3A3,3 0 0,1 3,0Z" style="opacity: 1; stroke-width: 0px; fill: rgb(224, 62, 73); fill-opacity: 1;"/><path class="point" transform="translate(333.95,113.27)" d="M3,0A3,3 0 1,1 0,-3A3,3 0 0,1 3,0Z" style="opacity: 1; stroke-width: 0px; fill: rgb(224, 62, 73); fill-opacity: 1;"/><path class="point" transform="translate(335.83,218)" d="M3,0A3,3 0 1,1 0,-3A3,3 0 0,1 3,0Z" style="opacity: 1; stroke-width: 0px; fill: rgb(224, 62, 73); fill-opacity: 1;"/><path class="point" transform="translate(335.83,164.18)" d="M3,0A3,3 0 1,1 0,-3A3,3 0 0,1 3,0Z" style="opacity: 1; stroke-width: 0px; fill: rgb(224, 62, 73); fill-opacity: 1;"/><path class="point" transform="translate(337.71,242.72)" d="M3,0A3,3 0 1,1 0,-3A3,3 0 0,1 3,0Z" style="opacity: 1; stroke-width: 0px; fill: rgb(224, 62, 73); fill-opacity: 1;"/><path class="point" transform="translate(337.71,139.45)" d="M3,0A3,3 0 1,1 0,-3A3,3 0 0,1 3,0Z" style="opacity: 1; stroke-width: 0px; fill: rgb(224, 62, 73); fill-opacity: 1;"/><path class="point" transform="translate(343.34,312.54)" d="M3,0A3,3 0 1,1 0,-3A3,3 0 0,1 3,0Z" style="opacity: 1; stroke-width: 0px; fill: rgb(224, 62, 73); fill-opacity: 1;"/><path class="point" transform="translate(343.34,69.64)" d="M3,0A3,3 0 1,1 0,-3A3,3 0 0,1 3,0Z" style="opacity: 1; stroke-width: 0px; fill: rgb(224, 62, 73); fill-opacity: 1;"/><path class="point" transform="translate(348.98,311.08)" d="M3,0A3,3 0 1,1 0,-3A3,3 0 0,1 3,0Z" style="opacity: 1; stroke-width: 0px; fill: rgb(224, 62, 73); fill-opacity: 1;"/><path class="point" transform="translate(348.98,71.09)" d="M3,0A3,3 0 1,1 0,-3A3,3 0 0,1 3,0Z" style="opacity: 1; stroke-width: 0px; fill: rgb(224, 62, 73); fill-opacity: 1;"/><path class="point" transform="translate(362.13,264.54)" d="M3,0A3,3 0 1,1 0,-3A3,3 0 0,1 3,0Z" style="opacity: 1; stroke-width: 0px; fill: rgb(224, 62, 73); fill-opacity: 1;"/><path class="point" transform="translate(362.13,117.64)" d="M3,0A3,3 0 1,1 0,-3A3,3 0 0,1 3,0Z" style="opacity: 1; stroke-width: 0px; fill: rgb(224, 62, 73); fill-opacity: 1;"/><path class="point" transform="translate(364,289.27)" d="M3,0A3,3 0 1,1 0,-3A3,3 0 0,1 3,0Z" style="opacity: 1; stroke-width: 0px; fill: rgb(224, 62, 73); fill-opacity: 1;"/><path class="point" transform="translate(364,92.91)" d="M3,0A3,3 0 1,1 0,-3A3,3 0 0,1 3,0Z" style="opacity: 1; stroke-width: 0px; fill: rgb(224, 62, 73); fill-opacity: 1;"/><path class="point" transform="translate(365.88,213.63)" d="M3,0A3,3 0 1,1 0,-3A3,3 0 0,1 3,0Z" style="opacity: 1; stroke-width: 0px; fill: rgb(224, 62, 73); fill-opacity: 1;"/><path class="point" transform="translate(365.88,168.54)" d="M3,0A3,3 0 1,1 0,-3A3,3 0 0,1 3,0Z" style="opacity: 1; stroke-width: 0px; fill: rgb(224, 62, 73); fill-opacity: 1;"/><path class="point" transform="translate(367.76,334.36)" d="M3,0A3,3 0 1,1 0,-3A3,3 0 0,1 3,0Z" style="opacity: 1; stroke-width: 0px; fill: rgb(224, 62, 73); fill-opacity: 1;"/></g><g class="text"/></g></g></g><g class="overplot"/><path class="xlines-above crisp" d="M0,0" style="fill: none;"/><path class="ylines-above crisp" d="M0,0" style="fill: none;"/><g class="overlines-above"/><g class="xaxislayer-above"><g class="xtick"><text text-anchor="middle" x="0" y="398" transform="translate(173.53,0)" style="font-family: 'Open Sans', verdana, arial, sans-serif; font-size: 12px; fill: rgb(68, 68, 68); fill-opacity: 1; white-space: pre;">50</text></g><g class="xtick"><text text-anchor="middle" x="0" y="398" transform="translate(267.45,0)" style="font-family: 'Open Sans', verdana, arial, sans-serif; font-size: 12px; fill: rgb(68, 68, 68); fill-opacity: 1; white-space: pre;">100</text></g><g class="xtick"><text text-anchor="middle" x="0" y="398" transform="translate(361.36,0)" style="font-family: 'Open Sans', verdana, arial, sans-serif; font-size: 12px; fill: rgb(68, 68, 68); fill-opacity: 1; white-space: pre;">150</text></g><g class="xtick"><text text-anchor="middle" x="0" y="398" transform="translate(455.27,0)" style="font-family: 'Open Sans', verdana, arial, sans-serif; font-size: 12px; fill: rgb(68, 68, 68); fill-opacity: 1; white-space: pre;">200</text></g></g><g class="yaxislayer-above"><g class="ytick"><text text-anchor="end" x="79" y="4.199999999999999" transform="translate(0,384.36)" style="font-family: 'Open Sans', verdana, arial, sans-serif; font-size: 12px; fill: rgb(68, 68, 68); fill-opacity: 1; white-space: pre;">0</text></g><g class="ytick"><text text-anchor="end" x="79" y="4.199999999999999" transform="translate(0,311.63)" style="font-family: 'Open Sans', verdana, arial, sans-serif; font-size: 12px; fill: rgb(68, 68, 68); fill-opacity: 1; white-space: pre;">50</text></g><g class="ytick"><text text-anchor="end" x="79" y="4.199999999999999" transform="translate(0,238.91)" style="font-family: 'Open Sans', verdana, arial, sans-serif; font-size: 12px; fill: rgb(68, 68, 68); fill-opacity: 1; white-space: pre;">100</text></g><g class="ytick"><text text-anchor="end" x="79" y="4.199999999999999" transform="translate(0,166.18)" style="font-family: 'Open Sans', verdana, arial, sans-serif; font-size: 12px; fill: rgb(68, 68, 68); fill-opacity: 1; white-space: pre;">150</text></g><g class="ytick"><text text-anchor="end" x="79" y="4.199999999999999" transform="translate(0,93.46000000000001)" style="font-family: 'Open Sans', verdana, arial, sans-serif; font-size: 12px; fill: rgb(68, 68, 68); fill-opacity: 1; white-space: pre;">200</text></g></g><g class="overaxes-above"/></g></g><g class="polarlayer"/><g class="ternarylayer"/><g class="geolayer"/><g class="funnelarealayer"/><g class="pielayer"/><g class="treemaplayer"/><g class="sunburstlayer"/><g class="glimages"/><defs id="topdefs-4bcca6"><g class="clips"/></defs><g class="layer-above"><g class="imagelayer"/><g class="shapelayer"/></g><g class="infolayer"><g class="g-gtitle"/><g class="g-xtitle"><text class="xtitle" x="288.5" y="437" text-anchor="middle" style="font-family: 'Open Sans', verdana, arial, sans-serif; font-size: 14px; fill: rgb(68, 68, 68); opacity: 1; font-weight: normal; white-space: pre;">X Axis</text></g><g class="g-ytitle"><text class="ytitle" transform="rotate(-90,42,217.5)" x="42" y="217.5" text-anchor="middle" style="font-family: 'Open Sans', verdana, arial, sans-serif; font-size: 14px; fill: rgb(68, 68, 68); opacity: 1; font-weight: normal; white-space: pre;">Y Axis</text></g></g></svg></g>
        <svg xmlns="http://www.w3.org/2000/svg" class="role-diagram-draw-area"><g class="shapes-region" style="stroke: black; fill: none;"><g class="composite-shape"><rect class="real" rx="0" ry="0" x="0" y="0" width="577.104574769151" height="465.3333330154419" style="stroke: none;"/></g><g/></g><g/><g/><g/></svg>
        <svg xmlns="http://www.w3.org/2000/svg" xmlns:xlink="http://www.w3.org/1999/xlink" width="660" height="475" style="width:660px;height:475px;font-family:Asana-Math, Asana;background:#FFF;"></svg>
</svg>
